<?xml version="1.0" encoding="UTF-8" standalone="no"?>
<svg xmlns:rdf="http://www.w3.org/1999/02/22-rdf-syntax-ns#" xmlns="http://www.w3.org/2000/svg" xml:space="preserve" height="245.02" viewBox="0 0 250.994 245.0173" width="250.99" version="1.1" xmlns:cc="http://creativecommons.org/ns#" xmlns:dc="http://purl.org/dc/elements/1.1/"><g transform="matrix(1.25 0 0 -1.25 -257 613.56)"><g transform="matrix(.42614 0 0 .42614 175.6 225.44)"><path d="m383.11 475.47c7.769 35.917-25.03 40.645-55.909 39.767-41.231-1.1943-55.467-20.041-59.555-35.028l-38.764-169.98c-7.7605-35.942 25.026-40.715 55.913-39.786 41.185 1.2006 55.424 20.043 59.5 35.062l38.815 169.97zm155.63 9.53-39.77-172.76c-20.81-87.33-147.86-149.39-267.78-149.39-114.33 0-175 64.747-157.94 137.83l39.931 172.74c20.834 87.365 147.74 149.4 267.67 149.4 114.36 0 175-64.757 157.9-137.83" fill="#fff"/><path d="m407.82 280.12c-15.65-78.34-99.91-93.84-161.91-96.58-106.43-4.77-168.06 48.49-152.69 114.25l39.857 172.73c5.9649 25.774 26.509 55.258 56.965 73.321 0.7458 0.425 2.8134 0.7267 2.1738-1.377l-57.65-249.76c-10.168-43.871 34.822-75.729 120.47-70.246 79.475 5.1298 104.41 31.053 110.15 57.001l46.272 202.9c9.9896 45.28-43.363 57.08-98.626 53.261-2.3779-0.1955-3.1173 1.9146-0.4037 2.7221 40.305 11.855 157.32 13.719 144.02-45.167l-48.63-213.06"/><path d="m155.61 292.45c-13.343-58.854 103.68-56.99 143.99-45.12 2.7157 0.7842 2.0103 2.8178-0.4484 2.7222-55.233-3.8548-108.53 7.956-98.579 53.267l46.251 202.87c5.7524 25.927 30.672 51.884 110.21 57.001 85.635 5.4528 130.62-26.439 120.45-70.225l-57.42-249.82c-0.6886-2.1484 1.4683-1.8721 2.1696-1.4195 30.456 18.13 50.992 47.615 56.944 73.364l39.682 172.76c15.34 65.73-46.26 119.03-152.68 114.25-62.11-2.75-146.33-18.25-161.96-96.55l-48.6-213.1" fill="#d71920"/></g></g></svg>
